# Blender 4.3.2
# www.blender.org
mtllib fancy_dice-01.mtl
o Cube
v -0.201858 -0.500000 0.500000
v -0.359688 -0.434625 0.500000
v -0.359688 -0.500000 0.434625
v -0.500000 -0.201858 0.500000
v -0.500000 -0.359688 0.434625
v -0.434625 -0.359688 0.500000
v -0.434625 -0.500000 0.359688
v -0.500000 -0.434625 0.359688
v -0.500000 -0.500000 0.201858
v -0.201858 0.500000 0.500000
v -0.359688 0.500000 0.434625
v -0.359688 0.434625 0.500000
v -0.500000 0.500000 0.201858
v -0.500000 0.434625 0.359688
v -0.434625 0.500000 0.359688
v -0.434625 0.359688 0.500000
v -0.500000 0.359688 0.434625
v -0.500000 0.201858 0.500000
v -0.500000 -0.500000 -0.201858
v -0.500000 -0.434625 -0.359688
v -0.434625 -0.500000 -0.359688
v -0.500000 -0.201858 -0.500000
v -0.434625 -0.359688 -0.500000
v -0.500000 -0.359688 -0.434625
v -0.359688 -0.500000 -0.434625
v -0.359688 -0.434625 -0.500000
v -0.201858 -0.500000 -0.500000
v -0.201858 0.500000 -0.500000
v -0.359688 0.434625 -0.500000
v -0.359688 0.500000 -0.434625
v -0.500000 0.201858 -0.500000
v -0.500000 0.359688 -0.434625
v -0.434625 0.359688 -0.500000
v -0.434625 0.500000 -0.359688
v -0.500000 0.434625 -0.359688
v -0.500000 0.500000 -0.201858
v 0.500000 -0.500000 0.201858
v 0.500000 -0.434625 0.359688
v 0.434625 -0.500000 0.359688
v 0.500000 -0.201858 0.500000
v 0.434625 -0.359688 0.500000
v 0.500000 -0.359688 0.434625
v 0.359688 -0.500000 0.434625
v 0.359688 -0.434625 0.500000
v 0.201858 -0.500000 0.500000
v 0.201858 0.500000 0.500000
v 0.359688 0.434625 0.500000
v 0.359688 0.500000 0.434625
v 0.500000 0.201858 0.500000
v 0.500000 0.359688 0.434625
v 0.434625 0.359688 0.500000
v 0.434625 0.500000 0.359688
v 0.500000 0.434625 0.359688
v 0.500000 0.500000 0.201858
v 0.201858 -0.500000 -0.500000
v 0.359688 -0.434625 -0.500000
v 0.359688 -0.500000 -0.434625
v 0.500000 -0.201858 -0.500000
v 0.500000 -0.359688 -0.434625
v 0.434625 -0.359688 -0.500000
v 0.434625 -0.500000 -0.359688
v 0.500000 -0.434625 -0.359688
v 0.500000 -0.500000 -0.201858
v 0.500000 0.500000 -0.201858
v 0.500000 0.434625 -0.359688
v 0.434625 0.500000 -0.359688
v 0.500000 0.201858 -0.500000
v 0.434625 0.359688 -0.500000
v 0.500000 0.359688 -0.434625
v 0.359688 0.500000 -0.434625
v 0.359688 0.434625 -0.500000
v 0.201858 0.500000 -0.500000
vn -1.0000 -0.0000 -0.0000
vn 0.5774 0.5774 0.5774
vn -0.5774 -0.5774 -0.5774
vn -0.5774 0.5774 0.5774
vn -0.5774 0.5774 -0.5774
vn -0.0000 -0.0000 1.0000
vn -0.0000 1.0000 -0.0000
vn -0.0000 -0.0000 -1.0000
vn 0.5774 -0.5774 0.5774
vn 1.0000 -0.0000 -0.0000
vn 0.5774 -0.5774 -0.5774
vn 0.5774 0.5774 -0.5774
vn -0.5774 -0.5774 0.5774
vn -0.2811 -0.6786 0.6786
vn -0.6786 -0.2811 0.6786
vn -0.6786 -0.6786 0.2811
vn -0.2811 0.6786 0.6786
vn -0.6786 0.6786 0.2811
vn -0.6786 0.2811 0.6786
vn -0.6786 -0.6786 -0.2811
vn -0.6786 -0.2811 -0.6786
vn -0.2811 -0.6786 -0.6786
vn -0.2811 0.6786 -0.6786
vn -0.6786 0.2811 -0.6786
vn -0.6786 0.6786 -0.2811
vn 0.6786 -0.6786 0.2811
vn 0.6786 -0.2811 0.6786
vn 0.2811 -0.6786 0.6786
vn 0.2811 0.6786 0.6786
vn 0.6786 0.2811 0.6786
vn 0.6786 0.6786 0.2811
vn 0.2811 -0.6786 -0.6786
vn 0.6786 -0.2811 -0.6786
vn 0.6786 -0.6786 -0.2811
vn 0.6786 0.6786 -0.2811
vn 0.6786 0.2811 -0.6786
vn 0.2811 0.6786 -0.6786
vn -0.0000 -1.0000 -0.0000
vn 0.5773 0.5774 0.5774
vn 0.5774 0.5773 0.5774
vn 0.5774 0.5774 0.5773
vn -0.5774 -0.5773 -0.5774
vn -0.5773 -0.5774 -0.5774
vn -0.5774 -0.5774 -0.5773
vn -0.5774 0.5774 0.5773
vn -0.5774 0.5773 0.5774
vn -0.5773 0.5774 0.5774
vn -0.5773 0.5774 -0.5774
vn -0.5774 0.5773 -0.5774
vn -0.5774 0.5774 -0.5773
vn 0.5774 -0.5773 0.5774
vn 0.5773 -0.5774 0.5774
vn 0.5774 -0.5774 0.5773
vn 0.5773 -0.5774 -0.5774
vn 0.5774 -0.5773 -0.5774
vn 0.5774 -0.5774 -0.5773
vn 0.5774 0.5773 -0.5774
vn 0.5773 0.5774 -0.5774
vn 0.5774 0.5774 -0.5773
vn -0.5773 -0.5774 0.5774
vn -0.5774 -0.5773 0.5774
vn -0.5774 -0.5774 0.5773
vt 0.333333 0.567286
vt 0.432714 0.333333
vt 0.666667 0.432714
vt 0.000000 0.046771
vt 0.021792 0.000000
vt 0.046771 0.021792
vt 0.644875 0.380104
vt 0.619896 0.333333
vt 0.666667 0.355125
vt 0.021792 0.286563
vt 0.046771 0.333333
vt -0.000000 0.311542
vt 0.333333 0.286563
vt 0.311542 0.333333
vt 0.286563 0.311542
vt 0.666667 0.233953
vt 0.766047 -0.000000
vt 1.000000 0.099381
vt 0.233953 0.333333
vt 0.000000 0.233953
vt 0.099381 0.000000
vt 0.666667 0.567286
vt 0.766047 0.333333
vt 1.000000 0.432714
vt 0.644875 0.046771
vt 0.619896 0.000000
vt 0.666667 0.021792
vt 0.333333 0.233953
vt 0.432714 -0.000000
vt 0.666667 0.099381
vt 0.333333 0.619896
vt 0.311542 0.666667
vt 0.286563 0.644875
vt 0.355125 0.286563
vt 0.380104 0.333333
vt 0.333333 0.311541
vt 0.000000 0.380104
vt 0.021792 0.333333
vt 0.046771 0.355125
vt 0.000000 0.432714
vt 0.021792 0.380104
vt 0.567286 0.666667
vt 0.619896 0.644875
vt 0.619896 0.666667
vt 0.666667 0.619896
vt 0.644875 0.619896
vt 0.666667 0.567286
vt -0.000000 0.286563
vt 0.355125 0.619896
vt 0.333333 0.619896
vt 0.380104 0.666667
vt 0.380104 0.644875
vt 0.432714 0.666667
vt 0.666667 0.380104
vt 0.567286 0.333333
vt 0.619896 0.355125
vt 0.311542 0.380104
vt 0.333333 0.380104
vt 0.333333 0.432714
vt 0.688458 0.619896
vt 0.666667 0.619896
vt 0.380104 0.355125
vt 0.380104 0.333333
vt 0.333333 0.380104
vt 0.355125 0.380104
vt 0.333333 0.432714
vt 0.666667 0.046771
vt 0.567286 0.000000
vt 0.619896 0.021792
vt 0.021792 0.619896
vt -0.000000 0.619896
vt -0.000000 0.567286
vt 0.000000 0.099381
vt 0.021792 0.046771
vt 0.380104 0.021792
vt 0.380104 -0.000000
vt 0.333333 0.046771
vt 0.355125 0.046771
vt 0.333333 0.099381
vt 0.333333 0.567286
vt 0.311542 0.619896
vt 0.567286 0.333333
vt 0.619896 0.311542
vt 0.619896 0.333333
vt 0.666667 0.286563
vt 0.644875 0.286563
vt 0.666667 0.233953
vt 0.333333 0.286563
vt 0.432714 0.333333
vt 0.380104 0.311542
vt 0.666667 0.380104
vt 0.688459 0.380104
vt 0.666667 0.432714
vt 0.233953 0.666667
vt 0.099381 0.333333
vt 0.000000 0.021792
vt 0.046771 0.000000
vt 0.644875 0.333333
vt 0.046771 0.311542
vt 0.021792 0.333333
vt 0.311542 0.286563
vt 0.333333 0.311542
vt 0.286563 0.333333
vt 1.000000 0.233953
vt 0.978208 0.286563
vt 0.953229 0.311542
vt 0.900619 0.333333
vt 0.766047 0.333333
vt 0.713437 0.311542
vt 0.688459 0.286563
vt 0.666667 0.099381
vt 0.688459 0.046771
vt 0.713437 0.021792
vt 0.900619 0.000000
vt 0.953229 0.021792
vt 0.978208 0.046771
vt 0.233953 0.000000
vt 0.286563 0.021792
vt 0.311542 0.046771
vt 0.333333 0.099381
vt 0.333333 0.233953
vt 0.099381 0.333333
vt 1.000000 0.567286
vt 0.978208 0.619896
vt 0.953229 0.644875
vt 0.900619 0.666667
vt 0.766047 0.666667
vt 0.713437 0.644875
vt 0.713437 0.355125
vt 0.953229 0.355125
vt 0.978208 0.380104
vt 0.644875 0.000000
vt 0.333333 0.644875
vt 0.286563 0.666667
vt 0.355125 0.333333
vt 0.000000 0.355125
vt 0.046771 0.333333
vt 0.233953 0.333333
vt 0.286563 0.355125
vt 0.099381 0.666667
vt 0.046771 0.644875
s 0
f 13/1/1 31/2/1 19/3/1
f 47/4/2 50/5/2 52/6/2
f 20/7/3 23/8/3 25/9/3
f 11/10/4 14/11/4 16/12/4
f 29/13/5 32/14/5 34/15/5
f 46/16/6 18/17/6 1/18/6
f 36/19/7 10/20/7 54/21/7
f 28/22/8 67/23/8 55/24/8
f 38/25/9 41/26/9 43/27/9
f 64/28/10 49/29/10 37/30/10
f 56/31/11 59/32/11 61/33/11
f 65/34/12 68/35/12 70/36/12
f 2/37/13 5/38/13 7/39/13
f 1/40/14 2/37/14 3/41/14
f 4/42/15 5/43/15 6/44/15
f 7/45/16 8/46/16 9/47/16
f 10/20/17 11/10/17 12/48/17
f 13/1/18 14/49/18 15/50/18
f 16/51/19 17/52/19 18/53/19
f 19/3/20 20/7/20 21/54/20
f 22/55/21 23/8/21 24/56/21
f 25/57/22 26/58/22 27/59/22
f 28/22/23 29/60/23 30/61/23
f 31/2/24 32/62/24 33/63/24
f 34/64/25 35/65/25 36/66/25
f 37/30/26 38/25/26 39/67/26
f 40/68/27 41/26/27 42/69/27
f 43/70/28 44/71/28 45/72/28
f 46/73/29 47/4/29 48/74/29
f 49/29/30 50/75/30 51/76/30
f 52/77/31 53/78/31 54/79/31
f 55/80/32 56/31/32 57/81/32
f 58/82/33 59/83/33 60/84/33
f 61/85/34 62/86/34 63/87/34
f 64/28/35 65/34/35 66/88/35
f 67/89/36 68/35/36 69/90/36
f 70/91/37 71/92/37 72/93/37
f 63/94/38 45/72/38 9/95/38
f 19/3/1 9/47/1 8/46/1
f 8/46/1 5/43/1 4/42/1
f 4/42/1 18/53/1 17/52/1
f 17/52/1 14/49/1 13/1/1
f 13/1/1 36/66/1 35/65/1
f 35/65/1 32/62/1 31/2/1
f 31/2/1 22/55/1 24/56/1
f 24/56/1 20/7/1 19/3/1
f 19/3/1 8/46/1 4/42/1
f 4/42/1 17/52/1 13/1/1
f 13/1/1 35/65/1 31/2/1
f 31/2/1 24/56/1 19/3/1
f 19/3/1 4/42/1 13/1/1
f 52/6/39 48/74/39 47/4/39
f 47/4/40 51/96/40 50/5/40
f 50/5/41 53/97/41 52/6/41
f 25/9/42 21/54/42 20/7/42
f 20/7/43 24/56/43 23/8/43
f 23/8/44 26/98/44 25/9/44
f 16/12/45 12/48/45 11/10/45
f 11/10/46 15/99/46 14/11/46
f 14/11/47 17/100/47 16/12/47
f 34/15/48 30/101/48 29/13/48
f 29/13/49 33/102/49 32/14/49
f 32/14/50 35/103/50 34/15/50
f 1/18/6 45/104/6 44/105/6
f 44/105/6 41/106/6 40/107/6
f 40/107/6 49/108/6 51/109/6
f 51/109/6 47/110/6 46/16/6
f 46/16/6 10/111/6 12/112/6
f 12/112/6 16/113/6 18/17/6
f 18/17/6 4/114/6 6/115/6
f 6/115/6 2/116/6 1/18/6
f 1/18/6 44/105/6 40/107/6
f 40/107/6 51/109/6 46/16/6
f 46/16/6 12/112/6 18/17/6
f 18/17/6 6/115/6 1/18/6
f 1/18/6 40/107/6 46/16/6
f 54/21/7 64/117/7 66/118/7
f 66/118/7 70/119/7 72/120/7
f 72/120/7 28/121/7 30/101/7
f 30/101/7 34/15/7 36/19/7
f 36/19/7 13/122/7 15/99/7
f 15/99/7 11/10/7 10/20/7
f 10/20/7 46/73/7 48/74/7
f 48/74/7 52/6/7 54/21/7
f 54/21/7 66/118/7 72/120/7
f 72/120/7 30/101/7 36/19/7
f 36/19/7 15/99/7 10/20/7
f 10/20/7 48/74/7 54/21/7
f 54/21/7 72/120/7 36/19/7
f 55/24/8 27/123/8 26/124/8
f 26/124/8 23/125/8 22/126/8
f 22/126/8 31/127/8 33/128/8
f 33/128/8 29/60/8 28/22/8
f 28/22/8 72/93/8 71/92/8
f 71/92/8 68/129/8 67/23/8
f 67/23/8 58/107/8 60/130/8
f 60/130/8 56/131/8 55/24/8
f 55/24/8 26/124/8 22/126/8
f 22/126/8 33/128/8 28/22/8
f 28/22/8 71/92/8 67/23/8
f 67/23/8 60/130/8 55/24/8
f 55/24/8 22/126/8 28/22/8
f 43/27/51 39/67/51 38/25/51
f 38/25/52 42/69/52 41/26/52
f 41/26/53 44/132/53 43/27/53
f 37/30/10 63/87/10 62/86/10
f 62/86/10 59/83/10 58/82/10
f 58/82/10 67/89/10 69/90/10
f 69/90/10 65/34/10 64/28/10
f 64/28/10 54/79/10 53/78/10
f 53/78/10 50/75/10 49/29/10
f 49/29/10 40/68/10 42/69/10
f 42/69/10 38/25/10 37/30/10
f 37/30/10 62/86/10 58/82/10
f 58/82/10 69/90/10 64/28/10
f 64/28/10 53/78/10 49/29/10
f 49/29/10 42/69/10 37/30/10
f 37/30/10 58/82/10 64/28/10
f 61/33/54 57/81/54 56/31/54
f 56/31/55 60/133/55 59/32/55
f 59/32/56 62/134/56 61/33/56
f 70/36/57 66/88/57 65/34/57
f 65/34/58 69/90/58 68/35/58
f 68/35/59 71/135/59 70/36/59
f 7/39/60 3/41/60 2/37/60
f 2/37/61 6/136/61 5/38/61
f 5/38/62 8/137/62 7/39/62
f 9/95/38 19/138/38 21/139/38
f 21/139/38 25/57/38 27/59/38
f 27/59/38 55/80/38 57/81/38
f 57/81/38 61/33/38 63/94/38
f 63/94/38 37/140/38 39/141/38
f 39/141/38 43/70/38 45/72/38
f 45/72/38 1/40/38 3/41/38
f 3/41/38 7/39/38 9/95/38
f 9/95/38 21/139/38 27/59/38
f 27/59/38 57/81/38 63/94/38
f 63/94/38 39/141/38 45/72/38
f 45/72/38 3/41/38 9/95/38
f 9/95/38 27/59/38 63/94/38
