# Blender 4.3.2
# www.blender.org
mtllib obscure_unit_tetrahedron-02.mtl
o Cube
v -1.000000 -1.000000 1.000000
v -1.000000 -1.000000 -1.000000
v 0.000000 1.000000 0.000000
v 1.000000 -1.000000 0.000000
vn 0.4364 0.2182 0.8729
vn -0.8944 0.4472 -0.0000
vn 0.4364 0.2182 -0.8729
vn -0.0000 -1.0000 -0.0000
vt 0.389292 0.504530
vt 0.016721 0.260626
vt 0.389292 0.016721
vt 0.786325 0.983279
vt 0.422733 0.820676
vt 0.786325 0.495469
vt 0.422733 0.283905
vt 0.830864 0.016721
vt 0.830864 0.462028
vt 0.372967 0.805156
vt 0.016721 0.983279
vt 0.016721 0.537972
s 0
f 1/1/1 4/2/1 3/3/1
f 2/4/2 1/5/2 3/6/2
f 2/7/3 3/8/3 4/9/3
f 1/10/4 2/11/4 4/12/4
